<?xml version="1.0" standalone="no"?>
<!DOCTYPE svg PUBLIC "-//W3C//DTD SVG 20010904//EN"
 "http://www.w3.org/TR/2001/REC-SVG-20010904/DTD/svg10.dtd">
<svg version="1.0" xmlns="http://www.w3.org/2000/svg"
 width="512.000000pt" height="512.000000pt" viewBox="0 0 512.000000 512.000000"
 preserveAspectRatio="xMidYMid meet">
<metadata>
Created by potrace 1.14, written by Peter Selinger 2001-2017
</metadata>
<g transform="translate(0.000000,512.000000) scale(0.100000,-0.100000)"
fill="#000000" stroke="none">
<path d="M2440 5034 c-165 -44 -313 -166 -454 -377 -84 -125 -197 -368 -258
-554 -21 -64 -22 -65 -52 -58 -450 96 -823 81 -1061 -43 -133 -69 -237 -201
-266 -340 -18 -89 -6 -250 26 -352 65 -205 212 -444 422 -687 l54 -62 -91
-108 c-211 -250 -363 -522 -405 -725 -101 -479 265 -761 922 -710 127 10 280
32 400 58 31 6 32 5 44 -39 15 -60 40 -84 77 -71 23 8 27 15 26 44 -1 19 -4
49 -9 66 -7 30 -5 32 26 39 79 17 387 122 547 187 l172 70 153 -63 c156 -64
410 -152 530 -184 69 -18 69 -19 63 -49 -4 -17 -31 -93 -62 -171 -179 -450
-407 -709 -646 -732 -138 -12 -249 37 -384 172 -81 81 -125 139 -219 291 -31
51 -63 66 -91 44 -23 -20 -16 -51 31 -134 164 -288 378 -458 595 -473 217 -15
419 115 603 390 69 103 188 351 238 495 l42 124 31 -7 c123 -26 264 -46 398
-57 357 -28 636 41 792 195 112 111 152 226 143 407 -12 247 -166 544 -454
877 l-54 62 91 108 c193 229 346 495 395 687 42 167 31 321 -33 440 -55 105
-201 219 -328 256 -57 17 -86 1 -82 -43 3 -29 9 -34 81 -63 194 -80 287 -213
287 -407 0 -231 -147 -515 -448 -867 l-30 -35 -76 70 c-158 145 -298 265 -416
356 -70 54 -122 102 -125 114 -2 11 -11 79 -20 150 -19 148 -64 386 -99 522
l-24 93 37 9 c74 20 220 41 351 52 158 13 180 19 180 53 0 35 -26 56 -70 56
-91 0 -355 -35 -501 -66 -25 -6 -27 -2 -68 118 -50 144 -169 392 -238 495
-208 311 -449 442 -693 377z m304 -133 c134 -66 256 -201 374 -414 57 -102
176 -384 188 -445 6 -28 4 -29 -63 -47 -128 -34 -338 -107 -510 -177 l-173
-70 -173 70 c-172 70 -382 143 -509 177 -40 10 -68 23 -68 31 0 7 15 55 34
106 146 401 328 666 529 769 79 40 119 49 211 44 68 -3 91 -9 160 -44z m-1444
-901 c117 -10 276 -34 341 -51 l36 -9 -23 -93 c-35 -135 -80 -373 -99 -522 -9
-71 -18 -140 -21 -152 -2 -12 -38 -47 -86 -84 -140 -105 -280 -223 -404 -338
-66 -61 -122 -111 -125 -111 -12 0 -172 199 -240 298 -288 420 -317 761 -80
936 150 110 388 153 701 126z m729 -155 c119 -39 401 -147 401 -155 0 -3 -71
-41 -157 -85 -164 -83 -398 -220 -543 -317 -46 -31 -85 -56 -86 -55 -4 4 36
264 57 367 22 110 67 299 75 311 5 8 95 -16 253 -66z m1344 -40 c41 -163 113
-562 104 -572 -1 0 -39 23 -83 53 -144 96 -385 237 -547 319 -86 44 -157 82
-157 85 0 20 636 237 652 222 4 -4 18 -52 31 -107z m-611 -269 c194 -99 352
-189 508 -289 186 -120 217 -145 223 -176 4 -16 11 -137 17 -268 11 -228 2
-650 -17 -752 -5 -30 -21 -43 -177 -145 -94 -62 -220 -141 -281 -176 -153 -89
-452 -240 -474 -240 -22 0 -304 141 -466 234 -66 38 -197 120 -291 181 -156
103 -172 116 -177 146 -19 104 -29 519 -18 749 7 133 15 255 18 272 5 26 30
46 177 143 94 61 225 143 291 181 157 90 445 234 467 234 10 0 100 -42 200
-94z m1038 -675 c58 -47 155 -134 215 -193 l110 -107 -55 -56 c-112 -116 -454
-405 -465 -393 -2 2 0 96 6 208 10 192 7 421 -8 620 l-6 85 49 -40 c27 -21 96
-77 154 -124z m-2284 72 c-14 -190 -17 -414 -7 -612 6 -118 10 -216 8 -217 -7
-6 -306 246 -405 342 l-117 113 75 76 c94 96 423 374 444 375 4 0 5 -35 2 -77z
m-454 -580 c138 -126 258 -226 391 -326 45 -34 79 -67 81 -80 2 -12 12 -80 21
-152 19 -148 64 -386 99 -522 l24 -93 -37 -9 c-60 -16 -220 -40 -326 -51 -401
-39 -700 45 -814 229 -145 236 -28 602 328 1031 46 55 87 99 92 98 4 -2 67
-58 141 -125z m3209 50 c145 -175 211 -269 288 -414 174 -326 159 -597 -40
-744 -145 -107 -390 -151 -688 -126 -123 11 -340 44 -374 57 -12 4 -11 20 9
97 48 187 114 563 114 649 0 35 -4 31 215 206 83 66 206 172 274 236 69 64
127 116 131 116 4 0 36 -35 71 -77z m-2576 -548 c114 -83 473 -291 658 -381
42 -21 77 -41 77 -44 0 -3 -19 -13 -42 -22 -24 -9 -97 -37 -163 -63 -132 -51
-436 -146 -447 -139 -16 10 -107 442 -123 589 -4 33 -9 68 -12 79 -6 21 1 18
52 -19z m1764 -100 c-27 -189 -96 -516 -115 -546 -5 -8 -95 16 -253 66 -119
39 -401 147 -401 155 0 3 71 41 157 85 162 82 403 223 547 319 44 30 82 53 83
53 1 -1 -7 -60 -18 -132z"/>
<path d="M1994 3106 c-62 -27 -101 -110 -91 -193 5 -51 21 -73 53 -73 35 0 54
36 54 102 0 46 4 59 19 68 13 6 198 10 531 10 333 0 518 -4 531 -10 18 -10 19
-25 19 -333 0 -238 -3 -326 -12 -335 -17 -17 -1059 -17 -1076 0 -7 7 -12 42
-12 85 0 60 -4 77 -20 93 -24 24 -39 25 -66 6 -28 -21 -27 -176 1 -224 39 -66
61 -72 264 -72 99 0 181 -3 181 -7 0 -5 -9 -66 -20 -137 -25 -164 -25 -192 -1
-206 12 -6 99 -10 215 -10 214 0 226 3 226 59 0 16 -9 86 -20 157 -11 71 -20
132 -20 137 0 4 82 7 181 7 203 0 224 6 264 72 19 31 20 51 20 368 0 317 -1
337 -20 369 -11 19 -33 43 -48 55 -28 21 -37 21 -575 23 -442 2 -553 0 -578
-11z m669 -998 c10 -62 17 -116 17 -120 0 -5 -54 -8 -120 -8 -66 0 -120 3
-120 8 0 4 7 58 17 120 l16 112 87 0 87 0 16 -112z"/>
<path d="M2258 2849 c-26 -15 -23 -64 4 -83 19 -14 65 -16 298 -16 233 0 279
2 298 16 28 20 30 69 3 84 -26 14 -580 13 -603 -1z"/>
<path d="M1928 2729 c-21 -12 -24 -59 -6 -77 19 -19 55 -14 72 10 20 29 20 34
-4 58 -22 22 -37 24 -62 9z"/>
<path d="M2257 2572 c-23 -26 -21 -58 5 -76 19 -14 65 -16 298 -16 233 0 279
2 298 16 27 18 29 55 4 77 -16 15 -52 17 -304 17 -263 0 -286 -1 -301 -18z"/>
<path d="M4127 4082 c-22 -24 -21 -45 1 -65 35 -32 82 -10 82 38 0 42 -54 59
-83 27z"/>
<path d="M1815 847 c-18 -27 -12 -53 17 -68 27 -15 57 -2 64 28 14 55 -50 87
-81 40z"/>
</g>
</svg>
